<?xml version="1.0" encoding="UTF-8" standalone="no"?>
<!DOCTYPE svg PUBLIC "-//W3C//DTD SVG 1.1//EN"
 "http://www.w3.org/Graphics/SVG/1.1/DTD/svg11.dtd">
<!-- Generated by graphviz version 2.48.0 (20210717.1556)
 -->
<!-- Title: G Pages: 1 -->
<svg width="329pt" height="476pt"
 viewBox="0.00 0.00 329.34 476.00" xmlns="http://www.w3.org/2000/svg" xmlns:xlink="http://www.w3.org/1999/xlink">
<g id="graph0" class="graph" transform="scale(1 1) rotate(0) translate(4 472)">
<title>G</title>
<polygon fill="white" stroke="transparent" points="-4,4 -4,-472 325.34,-472 325.34,4 -4,4"/>
<!-- 0 -->
<g id="node1" class="node">
<title>0</title>
<ellipse fill="blue" stroke="black" cx="262.34" cy="-450" rx="53.89" ry="18"/>
<text text-anchor="middle" x="262.34" y="-446.3" font-family="Times New Roman,serif" font-size="14.00" fill="red">&quot;n1, n2&quot; (0)</text>
</g>
<!-- 1 -->
<g id="node2" class="node">
<title>1</title>
<ellipse fill="blue" stroke="black" cx="120.34" cy="-378" rx="51.99" ry="18"/>
<text text-anchor="middle" x="120.34" y="-374.3" font-family="Times New Roman,serif" font-size="14.00" fill="red">&quot;t1, n2&quot; (1)</text>
</g>
<!-- 0&#45;&gt;1 -->
<g id="edge1" class="edge">
<title>0&#45;&gt;1</title>
<path fill="none" stroke="black" d="M233.27,-434.67C211.49,-423.93 181.52,-409.16 157.92,-397.52"/>
<polygon fill="black" stroke="black" points="159.42,-394.36 148.9,-393.08 156.32,-400.64 159.42,-394.36"/>
</g>
<!-- 5 -->
<g id="node3" class="node">
<title>5</title>
<ellipse fill="blue" stroke="black" cx="211.34" cy="-162" rx="51.99" ry="18"/>
<text text-anchor="middle" x="211.34" y="-158.3" font-family="Times New Roman,serif" font-size="14.00" fill="red">&quot;n2, t2&quot; (5)</text>
</g>
<!-- 0&#45;&gt;5 -->
<g id="edge2" class="edge">
<title>0&#45;&gt;5</title>
<path fill="none" stroke="black" d="M266.63,-432.04C275.76,-392.36 293.86,-291.17 262.34,-216 257.53,-204.52 248.99,-194.1 240.26,-185.6"/>
<polygon fill="black" stroke="black" points="242.38,-182.79 232.63,-178.64 237.66,-187.97 242.38,-182.79"/>
</g>
<!-- 2 -->
<g id="node4" class="node">
<title>2</title>
<ellipse fill="none" stroke="black" cx="79.34" cy="-306" rx="50.09" ry="18"/>
<text text-anchor="middle" x="79.34" y="-302.3" font-family="Times New Roman,serif" font-size="14.00">&quot;t1, t2&quot; (2)</text>
</g>
<!-- 1&#45;&gt;2 -->
<g id="edge3" class="edge">
<title>1&#45;&gt;2</title>
<path fill="none" stroke="black" d="M110.42,-360.05C105.58,-351.8 99.67,-341.7 94.3,-332.54"/>
<polygon fill="black" stroke="black" points="97.25,-330.65 89.18,-323.79 91.21,-334.19 97.25,-330.65"/>
</g>
<!-- 4 -->
<g id="node5" class="node">
<title>4</title>
<ellipse fill="blue" stroke="black" cx="201.34" cy="-306" rx="53.89" ry="18"/>
<text text-anchor="middle" x="201.34" y="-302.3" font-family="Times New Roman,serif" font-size="14.00" fill="red">&quot;c1, n2&quot; (4)</text>
</g>
<!-- 1&#45;&gt;4 -->
<g id="edge4" class="edge">
<title>1&#45;&gt;4</title>
<path fill="none" stroke="black" d="M138.72,-361.12C149.42,-351.87 163.08,-340.07 174.92,-329.84"/>
<polygon fill="black" stroke="black" points="177.48,-332.25 182.76,-323.06 172.9,-326.95 177.48,-332.25"/>
</g>
<!-- 6 -->
<g id="node7" class="node">
<title>6</title>
<ellipse fill="none" stroke="black" cx="99.34" cy="-90" rx="50.09" ry="18"/>
<text text-anchor="middle" x="99.34" y="-86.3" font-family="Times New Roman,serif" font-size="14.00">&quot;t1, t2&quot; (6)</text>
</g>
<!-- 5&#45;&gt;6 -->
<g id="edge9" class="edge">
<title>5&#45;&gt;6</title>
<path fill="none" stroke="black" d="M187.32,-145.98C171.23,-135.93 149.84,-122.56 132.18,-111.52"/>
<polygon fill="black" stroke="black" points="133.67,-108.32 123.33,-105.99 129.96,-114.26 133.67,-108.32"/>
</g>
<!-- 8 -->
<g id="node8" class="node">
<title>8</title>
<ellipse fill="blue" stroke="black" cx="221.34" cy="-90" rx="53.89" ry="18"/>
<text text-anchor="middle" x="221.34" y="-86.3" font-family="Times New Roman,serif" font-size="14.00" fill="red">&quot;n1, c2&quot; (8)</text>
</g>
<!-- 5&#45;&gt;8 -->
<g id="edge10" class="edge">
<title>5&#45;&gt;8</title>
<path fill="none" stroke="black" d="M213.82,-143.7C214.92,-135.98 216.24,-126.71 217.47,-118.11"/>
<polygon fill="black" stroke="black" points="220.95,-118.5 218.9,-108.1 214.02,-117.51 220.95,-118.5"/>
</g>
<!-- 3 -->
<g id="node6" class="node">
<title>3</title>
<ellipse fill="blue" stroke="black" cx="201.34" cy="-234" rx="51.99" ry="18"/>
<text text-anchor="middle" x="201.34" y="-230.3" font-family="Times New Roman,serif" font-size="14.00" fill="red">&quot;c1, t2&quot; (3)</text>
</g>
<!-- 2&#45;&gt;3 -->
<g id="edge5" class="edge">
<title>2&#45;&gt;3</title>
<path fill="none" stroke="black" d="M104.92,-290.33C122.85,-280.04 147.04,-266.16 166.71,-254.87"/>
<polygon fill="black" stroke="black" points="168.45,-257.91 175.38,-249.9 164.97,-251.84 168.45,-257.91"/>
</g>
<!-- 4&#45;&gt;0 -->
<g id="edge7" class="edge">
<title>4&#45;&gt;0</title>
<path fill="none" stroke="black" d="M208.76,-324.27C219.31,-348.82 238.73,-394.02 251.07,-422.74"/>
<polygon fill="black" stroke="black" points="247.94,-424.35 255.11,-432.15 254.38,-421.58 247.94,-424.35"/>
</g>
<!-- 4&#45;&gt;3 -->
<g id="edge8" class="edge">
<title>4&#45;&gt;3</title>
<path fill="none" stroke="black" d="M201.34,-287.7C201.34,-279.98 201.34,-270.71 201.34,-262.11"/>
<polygon fill="black" stroke="black" points="204.84,-262.1 201.34,-252.1 197.84,-262.1 204.84,-262.1"/>
</g>
<!-- 3&#45;&gt;5 -->
<g id="edge6" class="edge">
<title>3&#45;&gt;5</title>
<path fill="none" stroke="black" d="M203.82,-215.7C204.92,-207.98 206.24,-198.71 207.47,-190.11"/>
<polygon fill="black" stroke="black" points="210.95,-190.5 208.9,-180.1 204.02,-189.51 210.95,-190.5"/>
</g>
<!-- 7 -->
<g id="node9" class="node">
<title>7</title>
<ellipse fill="blue" stroke="black" cx="99.34" cy="-18" rx="51.99" ry="18"/>
<text text-anchor="middle" x="99.34" y="-14.3" font-family="Times New Roman,serif" font-size="14.00" fill="red">&quot;t1, c2&quot; (7)</text>
</g>
<!-- 6&#45;&gt;7 -->
<g id="edge11" class="edge">
<title>6&#45;&gt;7</title>
<path fill="none" stroke="black" d="M99.34,-71.7C99.34,-63.98 99.34,-54.71 99.34,-46.11"/>
<polygon fill="black" stroke="black" points="102.84,-46.1 99.34,-36.1 95.84,-46.1 102.84,-46.1"/>
</g>
<!-- 8&#45;&gt;0 -->
<g id="edge13" class="edge">
<title>8&#45;&gt;0</title>
<path fill="none" stroke="black" d="M242.55,-106.76C271.91,-130.57 321.34,-178.73 321.34,-233 321.34,-307 321.34,-307 321.34,-307 321.34,-350.65 297.27,-396.47 279.88,-423.88"/>
<polygon fill="black" stroke="black" points="276.83,-422.16 274.28,-432.44 282.69,-425.99 276.83,-422.16"/>
</g>
<!-- 8&#45;&gt;7 -->
<g id="edge14" class="edge">
<title>8&#45;&gt;7</title>
<path fill="none" stroke="black" d="M195.47,-74.15C177.6,-63.9 153.62,-50.14 134.09,-38.93"/>
<polygon fill="black" stroke="black" points="135.6,-35.76 125.18,-33.82 132.11,-41.84 135.6,-35.76"/>
</g>
<!-- 7&#45;&gt;1 -->
<g id="edge12" class="edge">
<title>7&#45;&gt;1</title>
<path fill="none" stroke="black" d="M77.87,-34.56C65.65,-44.26 50.75,-57.61 40.34,-72 15.04,-107 1.34,-117.81 1.34,-161 1.34,-235 1.34,-235 1.34,-235 1.34,-275.45 -4.03,-291.72 20.34,-324 33.41,-341.3 53.8,-353.54 72.76,-361.86"/>
<polygon fill="black" stroke="black" points="71.63,-365.18 82.21,-365.74 74.29,-358.7 71.63,-365.18"/>
</g>
</g>
</svg>
